{"title":"Wild.Things.1998.720p.Bluray.x264.anoXmous","uid":6939452,"size":733915461,"categoryP":"video","categoryS":"hd___movies","magnet":"?xt=urn:btih:ed362b794f4ec9a399e7662de2c5cc981d6c694a&amp;dn=Wild.Things.1998.720p.Bluray.x264.anoXmous&amp;tr=udp%3A%2F%2Ftracker.openbittorrent.com%3A80&amp;tr=udp%3A%2F%2Fopen.demonii.com%3A1337&amp;tr=udp%3A%2F%2Ftracker.coppersurfer.tk%3A6969&amp;tr=udp%3A%2F%2Fexodus.desync.com%3A6969","seeders":4,"leechers":1,"uploader":"anoXmous","files":-1,"time":1325952202,"description":"\nWild.Things.1998.720p.Bluray.x264.anoXmous\n\nFormat                           : MPEG-4\nFormat profile                   : Base Media\nCodec ID                         : isom\nFile size                        : 700 MiB\nDuration                         : 1h 54mn\nOverall bit rate mode            : Variable\nOverall bit rate                 : 852 Kbps\n\n\nVideo\nID                               : 1\nFormat                           : AVC\nFormat/Info                      : Advanced Video Codec\nFormat profile                   : &lt;a class=&quot;__cf_email__&quot; href=&quot;/cdn-cgi/l/email-protection&quot; data-cfemail=&quot;3c74555b547c7008120d&quot;&gt;[email&amp;#160;protected]&lt;/a&gt;&lt;script cf-hash='f9e31' type=&quot;text/javascript&quot;&gt;\n/* &lt;![CDATA[ */!function(){try{var t=&quot;currentScript&quot;in document?document.currentScript:function(){for(var t=document.getElementsByTagName(&quot;script&quot;),e=t.length;e--;)if(t[e].getAttribute(&quot;cf-hash&quot;))return t[e]}();if(t&amp;&amp;t.previousSibling){var e,r,n,i,c=t.previousSibling,a=c.getAttribute(&quot;data-cfemail&quot;);if(a){for(e=&quot;&quot;,r=parseInt(a.substr(0,2),16),n=2;a.length-n;n+=2)i=parseInt(a.substr(n,2),16)^r,e+=String.fromCharCode(i);e=document.createTextNode(e),c.parentNode.replaceChild(e,c)}}}catch(u){}}();/* ]]&gt; */&lt;/script&gt;\nFormat settings, CABAC           : Yes\nFormat settings, ReFrames        : 4 frames\nCodec ID                         : avc1\nCodec ID/Info                    : Advanced Video Coding\nDuration                         : 1h 54mn\nBit rate                         : 780 Kbps\nMaximum bit rate                 : 7 782 Kbps\nWidth                            : 1 280 pixels\nHeight                           : 528 pixels\nDisplay aspect ratio             : 2.40:1\nFrame rate mode                  : Constant\nFrame rate                       : 23.976 fps\nColor space                      : YUV\nChroma subsampling               : 4:2:0\nBit depth                        : 8 bits\nScan type                        : Progressive\nBits/(Pixel*Frame)               : 0.048\nStream size                      : 640 MiB (91%)\nWriting library                  : x264 core 120 r2120 0c7dab9\n\nAudio\nID                               : 2\nFormat                           : AAC\nFormat/Info                      : Advanced Audio Codec\nFormat profile                   : LC\nCodec ID                         : 40\nDuration                         : 1h 54mn\nBit rate mode                    : Variable\nBit rate                         : 69.7 Kbps\nMaximum bit rate                 : 108 Kbps\nChannel(s)                       : 2 channels\nChannel positions                : Front: L R\nSampling rate                    : 48.0 KHz \nCompression mode                 : Lossy\nStream size                      : 57.3 MiB (8%)\n\n               SUB               :\nWild.Things.1998.720p.Bluray.x264.anoXmous_swe.srt\n &lt;a href=&quot;\nhttp://www.imdb.com/title/tt0120890/&quot; rel=&quot;nofollow&quot; target=&quot;_NEW&quot;&gt;\nhttp://www.imdb.com/title/tt0120890/&lt;/a&gt;\n\nThis work very fine with PSP and XBOX","torrent":{"xt":"urn:btih:ed362b794f4ec9a399e7662de2c5cc981d6c694a","amp;dn":"Wild.Things.1998.720p.Bluray.x264.anoXmous","amp;tr":["udp%3A%2F%2Ftracker.openbittorrent.com%3A80","udp%3A%2F%2Fopen.demonii.com%3A1337","udp%3A%2F%2Ftracker.coppersurfer.tk%3A6969","udp%3A%2F%2Fexodus.desync.com%3A6969"],"infoHash":"ed362b794f4ec9a399e7662de2c5cc981d6c694a","infoHashBuffer":{"type":"Buffer","data":[237,54,43,121,79,78,201,163,153,231,102,45,226,197,204,152,29,108,105,74]},"announce":[],"urlList":[]}}